<mxfile host="app.diagrams.net" modified="2020-11-19T01:20:24.384Z" agent="5.0 (Windows NT 10.0; WOW64) AppleWebKit/537.36 (KHTML, like Gecko) Chrome/84.0.4147.105 Safari/537.36" etag="RQr62lPfU_5iY6F3Q_HI" version="13.10.0" type="github">
  <diagram id="vq3SZU2b2aTNFdJLkRrI" name="Page-1">
    <mxGraphModel dx="1422" dy="762" grid="1" gridSize="10" guides="1" tooltips="1" connect="1" arrows="1" fold="1" page="1" pageScale="1" pageWidth="827" pageHeight="1169" math="0" shadow="0">
      <root>
        <mxCell id="0" />
        <mxCell id="1" parent="0" />
        <mxCell id="8qxHT6QCcnJXwAd0-ZJb-4" style="edgeStyle=orthogonalEdgeStyle;rounded=0;orthogonalLoop=1;jettySize=auto;html=1;exitX=0;exitY=0.5;exitDx=0;exitDy=0;exitPerimeter=0;" edge="1" parent="1" source="8qxHT6QCcnJXwAd0-ZJb-2" target="8qxHT6QCcnJXwAd0-ZJb-3">
          <mxGeometry relative="1" as="geometry" />
        </mxCell>
        <mxCell id="8qxHT6QCcnJXwAd0-ZJb-2" value="" style="verticalLabelPosition=bottom;verticalAlign=top;html=1;shape=mxgraph.basic.patternFillRect;fillStyle=diag;step=5;fillStrokeWidth=0.2;fillStrokeColor=#dddddd;direction=south;rotation=90;" vertex="1" parent="1">
          <mxGeometry x="130" y="100" width="90" height="140" as="geometry" />
        </mxCell>
        <mxCell id="8qxHT6QCcnJXwAd0-ZJb-3" value="" style="shape=cube;whiteSpace=wrap;html=1;boundedLbl=1;backgroundOutline=1;darkOpacity=0.05;darkOpacity2=0.1;" vertex="1" parent="1">
          <mxGeometry x="560" y="220" width="120" height="80" as="geometry" />
        </mxCell>
        <mxCell id="8qxHT6QCcnJXwAd0-ZJb-5" value="" style="shape=flexArrow;endArrow=classic;startArrow=classic;html=1;startWidth=28;startSize=3.8;" edge="1" parent="1">
          <mxGeometry width="50" height="50" relative="1" as="geometry">
            <mxPoint x="260" y="180" as="sourcePoint" />
            <mxPoint x="550" y="260" as="targetPoint" />
          </mxGeometry>
        </mxCell>
      </root>
    </mxGraphModel>
  </diagram>
</mxfile>
